<svg width="68" height="66" viewBox="0 0 68 66" fill="none" xmlns="http://www.w3.org/2000/svg">
<g clip-path="url(#clip0)">
<path d="M10.4059 16.753C9.68843 17.7312 9.89987 19.1059 10.8781 19.8233L12.1828 20.7802C13.1611 21.4976 14.5357 21.2862 15.2532 20.3079C15.9706 19.3296 15.7592 17.955 14.7809 17.2375L13.4762 16.2807C12.498 15.5633 11.1233 15.7747 10.4059 16.753ZM29.5582 5.20952C28.3392 5.39701 27.5031 6.53716 27.6906 7.7561L28.0771 10.2689C28.2646 11.4879 29.4047 12.324 30.6236 12.1365C31.8426 11.949 32.6787 10.8089 32.4913 9.58996L32.1047 7.07713C31.9173 5.85819 30.7771 5.02203 29.5582 5.20952ZM10.211 39.9701C11.43 39.7826 12.2661 38.6425 12.0786 37.4235C11.8911 36.2046 10.751 35.3684 9.53205 35.5559L6.89359 35.9617C5.67464 36.1492 4.83849 37.2894 5.02598 38.5083C5.21347 39.7273 6.35361 40.5634 7.57255 40.3759L10.211 39.9701ZM44.001 48.4643C43.8109 47.228 44.311 46.0296 45.1592 45.1862C46.6908 43.6632 47.8792 41.8764 48.7249 39.821C49.7812 37.2536 50.0925 34.5528 49.655 31.7081C48.9923 27.3999 46.9103 23.9689 43.393 21.3894C39.8757 18.8099 35.9776 17.8552 31.6695 18.5178C27.3613 19.1805 23.9304 21.2625 21.3508 24.7798C18.7713 28.2971 17.8166 32.1952 18.4792 36.5033C18.9172 39.3509 20.0066 41.8382 21.7457 43.9763C23.135 45.6844 24.8103 47.0295 26.7754 48.0145C27.8601 48.5582 28.7188 49.5602 28.9118 50.8149L29.8764 57.0862C30.2543 59.5426 32.5518 61.2276 35.0082 60.8497L41.2065 59.8964C43.6629 59.5185 45.3479 57.2209 44.9701 54.7645L44.001 48.4643ZM55.9106 30.6815C56.0981 31.9005 57.2382 32.7367 58.4572 32.5492L61.0957 32.1433C62.3146 31.9558 63.1508 30.8157 62.9633 29.5968C62.7758 28.3778 61.6356 27.5416 60.4167 27.7291L57.7782 28.135C56.5593 28.3225 55.7231 29.4626 55.9106 30.6815ZM47.2774 12.2265C46.5606 13.2039 46.7841 14.5791 47.7735 15.2792C48.7305 15.9564 50.0525 15.7504 50.758 14.8141L51.7317 13.522C52.4626 12.552 52.2595 11.1717 51.2801 10.4534C50.3096 9.74171 48.9459 9.95146 48.2342 10.9219L47.2774 12.2265Z" fill="#9DA2C8" stroke="#6668AA"/>
</g>
<defs>
<clipPath id="clip0">
<rect width="60" height="56.9492" fill="white" transform="matrix(0.988376 -0.152026 -0.152026 -0.988376 8.65775 65.4087)"/>
</clipPath>
</defs>
</svg>
